<?xml version="1.0" encoding="utf-8"?>
<!-- Generator: Adobe Illustrator 22.1.0, SVG Export Plug-In . SVG Version: 6.00 Build 0)  -->
<svg version="1.1" id="Layer_1" xmlns="http://www.w3.org/2000/svg" xmlns:xlink="http://www.w3.org/1999/xlink" x="0px" y="0px"
	 width="230.7px" height="73.9px" viewBox="0 0 230.7 73.9" style="enable-background:new 0 0 230.7 73.9;" xml:space="preserve">
<style type="text/css">
	.st0{fill:url(#SVGID_1_);}
	.st1{fill:#31ccfd;}
</style>
<title>VisitFinlandcom</title>
<linearGradient id="SVGID_1_" gradientUnits="userSpaceOnUse" x1="36.4108" y1="76.0028" x2="36.4108" y2="2.0857" gradientTransform="matrix(1 0 0 -1 0 76)">
	<stop  offset="0" style="stop-color:#F3954A"/>
	<stop  offset="1" style="stop-color:#EA5297"/>
</linearGradient>
<path class="st0" d="M72.8,30.3c0.2-2.7-1-5.3-3.1-7.1c-2-1.6-4.8-2.2-8.1-2.2c-0.2,0-0.3,0-0.5,0c-0.1,0-0.1,0-0.2,0
	c-0.5-1.3-1.2-2.5-1.9-3.7c-3.6-5.8-8.9-8.4-14.5-8.4c-0.4-0.6-0.8-1.3-1.2-2c-2.4-4.4-7-7-12-6.9c-4,0-8,1.5-10.9,4.2
	c-3.7,3.6-5.3,8.6-5.3,13.8c0,0.6,0,1.1,0.1,1.7c-3.8,0.8-7.3,2.5-10.3,4.9C2,27.2,0,30.5,0,34.2c0.1,2.9,1.2,5.6,3.2,7.7
	C4.7,43.6,5.7,45.7,6,48c0.4,1.8,1,3.5,1.8,5.1C14,65.6,26.6,73.7,40.6,73.9c5.9,0.2,11.7-1.7,16.4-5.4c3.3-2.7,5.6-6.3,6.8-10.4
	C65.2,53,65.5,51,68,45.9c1.5-3.1,2.8-6.3,3.8-9.6C72.4,34.3,72.8,32.3,72.8,30.3 M62.1,52.3c0,0.2,0,0.4,0,0.6
	c-1.6,2.4-3.4,4.7-5.3,6.8c-0.3,0.3-0.6,0.6-0.9,0.9c2.3-4.9,3.4-10.2,3.4-15.6c0-5.7-1.2-11.3-3.5-16.4c-2-4-5.4-7.1-9.6-8.7
	c-4.3-1.5-8.8-2.3-13.4-2.2c-3.4,0-3.3-1.6-0.6-3c3.7-2,7.8-3.2,12-3.5c1.6,2.6,3.5,5,5.7,7.1c2.5,2.3,5.6,3.7,9,4.1
	c2.1,5.3,3.4,12.8,3.4,23C62.3,47.7,62.2,49.9,62.1,52.3z M16.8,27.2c3,9,3.1,16.8,3.3,23.4c-3.1-3-6.4-5.6-10-7.9
	c-0.7-0.4-1.3-0.8-1.8-1.3c0.6-3.6,2.1-7.1,4.3-10c1.2-1.7,2.6-3.3,4.1-4.8C16.6,26.8,16.7,27,16.8,27.2z M21.7,48.2
	c0-6.7-1-13.4-2.8-19.9c-0.2-0.5-0.3-1.1-0.5-1.6c-0.8-2.4,0.7-3.9,5.8-4.5c2.9-0.4,5.7-0.5,8.6-0.6c4.1-0.1,8.1,0.5,12,1.9
	c3.3,1.2,6,3.6,7.6,6.8c2.1,4.6,3.2,9.7,3.2,14.8c0,8.7-3,17-8.8,20.9c-1.5,1.1-3.4,1.8-5.3,1.9c-2.2-0.1-4.3-0.9-6-2.3
	c-3.2-2.3-6.7-6.1-10.8-10.4c-0.9-0.9-1.9-1.9-2.8-2.9C21.8,51,21.7,49.6,21.7,48.2L21.7,48.2z M25.8,61.9c2.3,2.5,4.7,4.7,7.4,6.8
	c0.8,0.5,1.5,1,2.4,1.5c-1.8-0.2-3.6-0.6-5.3-1.3c-2.8-1-5.2-3.1-6.6-5.8c-0.7-1.5-1.2-3.1-1.4-4.8C23.5,59.4,24.7,60.7,25.8,61.9
	L25.8,61.9z M56.9,18.6c0.4,0.7,0.8,1.4,1.2,2.2C55.4,20.3,53,19,51,17.2c-1.8-1.7-3.4-3.6-4.8-5.7C50.4,12,54,14,56.9,18.6
	L56.9,18.6z M21.7,5.4c2.7-2.4,6.2-3.8,9.8-3.7c4.4-0.1,8.4,2.2,10.5,6c0.2,0.4,0.5,0.8,0.7,1.3c-7.1,0.6-14.5,4.6-21,9.7
	c-1.6,0.2-3.2,0.5-4.8,0.7c0-0.5,0-0.9,0-1.4C16.9,13.1,18.4,8.6,21.7,5.4L21.7,5.4z M3.8,34.2c0-2.3,1.3-4.6,3.6-6.7
	c2.4-2,5.3-3.4,8.4-4c0,0.1,0,0.2,0.1,0.4c-2,1.9-3.7,4-5.3,6.2c-2.1,2.8-3.6,6-4.4,9.5C4.7,38.1,3.8,36.2,3.8,34.2L3.8,34.2z
	 M10.1,52c-0.9-1.9-1.6-3.9-1.9-5.9c4.4,2.9,8.5,6.3,12.1,10.1c0.1,2.6,0.8,5.1,1.8,7.5c0.6,1.3,1.5,2.5,2.6,3.5
	C18.4,63.8,13.3,58.5,10.1,52L10.1,52z M55.4,66.6c-3,2.4-6.7,3.9-10.5,4.5c1.4-0.5,2.7-1.1,3.9-1.9s2.2-1.7,3.2-2.7
	c2.2-1.6,4.2-3.5,6.1-5.5c1.2-1.4,2.4-2.8,3.5-4.3C60.6,60.5,58.5,64,55.4,66.6L55.4,66.6z M70.2,35.8c-0.5,1.5-1,3-1.6,4.5
	c-1.5,3.7-3.6,5.9-4-0.3c-0.2-5.9-1.2-11.7-3.1-17.3l0,0c3.1,0,5.5,0.7,7.1,1.9c1.7,1.4,2.6,3.5,2.5,5.7
	C71.1,32.2,70.8,34,70.2,35.8L70.2,35.8z"/>
<polyline class="st1" points="80.4,31.9 83.6,31.9 87.7,43.3 92,31.7 95.8,31.7 94.3,32.8 94,34 88.7,47.1 86.4,47.1 80.4,31.9 "/>
<path class="st1" d="M95.8,31.7c0.9,0,1.5,0.8,1.5,1.6c0,0.9-0.8,1.5-1.6,1.5c-0.8,0-1.5-0.7-1.5-1.5C94.2,32.4,94.9,31.7,95.8,31.7
	L95.8,31.7 M94.5,36.8h2.6v10.3h-2.6V36.8z"/>
<path class="st1" d="M104.7,39.6c-0.4-0.7-1.2-1.1-2-1.1c-0.7,0-1.5,0.3-1.5,1.1c0,1.8,5.6,0.3,5.6,4.4c0,2.4-2.3,3.3-4.4,3.3
	c-1.5,0.1-3-0.5-4-1.6l1.7-1.6c0.6,0.8,1.5,1.2,2.4,1.3c0.8,0,1.7-0.4,1.7-1.2c0-2.1-5.6-0.5-5.6-4.4c0-2.3,2.1-3.3,4.1-3.3
	c1.4-0.1,2.8,0.5,3.7,1.6L104.7,39.6"/>
<path class="st1" d="M109.7,31.7c0.9,0,1.5,0.8,1.5,1.6c0,0.9-0.8,1.5-1.6,1.5c-0.8,0-1.5-0.7-1.5-1.5
	C108,32.4,108.8,31.7,109.7,31.7C109.6,31.7,109.7,31.7,109.7,31.7 M108.4,36.8h2.6v10.3h-2.6V36.8z"/>
<path class="st1" d="M112.2,38.9v-2.2h2.1v-3h2.6v3h2.8v2.2h-2.8v4.5c0,1,0.3,1.7,1.4,1.7c0.5,0,1-0.1,1.4-0.3V47
	c-0.7,0.2-1.3,0.4-2,0.3c-2.7,0-3.4-1.2-3.4-3.6V39L112.2,38.9"/>
<polyline class="st1" points="122.3,31.9 132.1,31.9 132.1,34.3 125,34.3 125,38.3 131.7,38.3 131.7,40.8 125,40.8 125,47.1
	122.3,47.1 122.3,31.9 "/>
<path class="st1" d="M134.6,31.7c0.9,0,1.5,0.8,1.5,1.6c0,0.9-0.8,1.5-1.6,1.5s-1.5-0.7-1.5-1.5C133,32.4,133.7,31.7,134.6,31.7
	L134.6,31.7 M133.3,36.8h2.6v10.3h-2.6V36.8z"/>
<path class="st1" d="M137.9,36.8h2.4v1.7l0,0c0.5-1.2,1.8-2,3.2-1.9c2.8,0,3.8,2,3.8,4.1v6.5h-2.6V42c0-1.1-0.1-3-1.9-3
	c-1.3,0-2.3,1-2.4,2.2c0,0.1,0,0.3,0,0.4v5.6h-2.6L137.9,36.8"/>
<rect x="149.4" y="30.8" class="st1" width="2.6" height="16.2"/>
<path class="st1" d="M160.4,45.6L160.4,45.6c-0.8,1.1-2,1.7-3.4,1.7c-1.9,0-3.8-1.1-3.8-3.1c0-3.3,3.9-3.6,6.5-3.6h0.6v-0.3
	c0-1.3-1-1.9-2.4-1.9c-1,0-2,0.4-2.7,1.1l-1.4-1.4c1.2-1.1,2.8-1.7,4.4-1.7c4.4,0,4.4,3.2,4.4,4.6v5.9h-2.3L160.4,45.6 M160.3,42.4
	h-0.5c-1.4,0-3.9,0.1-3.9,1.6c0,0.9,1,1.4,1.8,1.4c1.8,0,2.6-0.9,2.6-2.4L160.3,42.4z"/>
<path class="st1" d="M164.7,36.8h2.4v1.7l0,0c0.5-1.2,1.8-2,3.2-1.9c2.8,0,3.8,2,3.8,4.1v6.5h-2.6V42c0-1.1-0.1-3-1.9-3
	c-1.7,0-2.4,1.2-2.4,2.6v5.6h-2.6L164.7,36.8"/>
<path class="st1" d="M184.2,45.5L184.2,45.5c-0.8,1.2-2.2,1.9-3.6,1.8c-3.2,0-5.1-2.4-5.1-5.4s2-5.4,5-5.4c1.3-0.1,2.6,0.5,3.5,1.6
	h0.1v-7.2h2.6v16.2h-2.4L184.2,45.5 M181.1,45c1.7,0,3.1-1.3,3.2-3c0-1.7-1.3-3.1-3-3.2c-1.7,0-3.1,1.3-3.2,3c0,0,0,0,0,0.1
	c-0.1,1.6,1.2,3,2.9,3.1C181,45,181.1,45,181.1,45L181.1,45z"/>
<path class="st1" d="M190.4,43.9c0.9,0,1.7,0.7,1.7,1.6c0,0.9-0.7,1.7-1.6,1.8s-1.7-0.7-1.8-1.6C188.7,44.8,189.4,44,190.4,43.9
	L190.4,43.9"/>
<path class="st1" d="M200.6,39.9c-0.5-0.6-1.2-1-1.9-1c-1.7,0-3,1.4-3,3.1c0,1.6,1.4,3,3,3c0.8,0,1.5-0.3,2-1l1.7,1.8
	c-1,0.9-2.3,1.4-3.7,1.4c-3,0.1-5.4-2.2-5.5-5.2s2.2-5.4,5.2-5.5c0.1,0,0.3,0,0.4,0c1.4,0,2.7,0.5,3.7,1.6L200.6,39.9"/>
<path class="st1" d="M207.9,36.6c3,0.1,5.3,2.6,5.2,5.5c-0.1,3-2.6,5.3-5.5,5.2s-5.2-2.5-5.2-5.4s2.3-5.3,5.2-5.4
	C207.7,36.6,207.8,36.6,207.9,36.6 M207.9,45c1.7,0,3.1-1.3,3.1-3s-1.3-3.1-3-3.1s-3.1,1.3-3.1,3c0,0,0,0,0,0.1
	c-0.1,1.6,1.2,3,2.8,3.1C207.8,45,207.9,45,207.9,45L207.9,45z"/>
<path class="st1" d="M214.9,36.9h2.4v1.6l0,0c0.6-1.2,1.8-1.9,3.1-1.8c1.4-0.1,2.7,0.6,3.2,1.9c0.6-1.2,2-2,3.4-1.9
	c2.7,0,3.7,1.9,3.7,4.4v6.1h-2.5v-5.8c0-1.3-0.4-2.4-1.9-2.4c-1.6,0-2.2,1.3-2.2,2.6v5.5h-2.6V41c0-1.3-0.5-2.1-1.7-2.1
	c-1.3,0-2.3,1-2.4,2.2c0,0.1,0,0.3,0,0.4v5.6h-2.5V36.9"/>
</svg>
