<svg id="_ŽÓť_1" data-name="—ŽÓť_1" xmlns="http://www.w3.org/2000/svg" viewBox="0 0 259.8823 38.7716"><title>brush</title><path d="M244.8685,62.0663c-.242.0762-.515,1.1708-.718,1.162.2827.0123,1.552-1.1334,1.874-.81C245.8909,62.3475,244.63,62.1413,244.8685,62.0663Z" transform="translate(-20.1177 -39.0956)" fill="#fff"/><path d="M255.53,57.2365c-.2079.1331.5239.0239.2927-.2283Q255.5587,56.9361,255.53,57.2365Z" transform="translate(-20.1177 -39.0956)" fill="#fff"/><path d="M254.149,55.9688c-.35.1472.0344.2846.1663.3031Q254.431,56.052,254.149,55.9688Z" transform="translate(-20.1177 -39.0956)" fill="#fff"/><path d="M254.189,54.4562c-.1542-.1358-.7758.0307-.5491.2781C254.0834,54.9,254.37,54.8936,254.189,54.4562Z" transform="translate(-20.1177 -39.0956)" fill="#fff"/><path d="M224.5141,71.3142c-.901.1083.9879.2711.3076-.0587Z" transform="translate(-20.1177 -39.0956)" fill="#fff"/><path d="M254.8674,56.1189c.0075.3588,1.2664.8245,1.2972.2482C256.0216,56.2322,254.8705,56.2675,254.8674,56.1189Z" transform="translate(-20.1177 -39.0956)" fill="#fff"/><path d="M233.51,69.4418c-.03-.0083-.3686-.2775-.3893-.2706-.1592.0533-.3294.5688-.21.699C233.0608,69.9813,233.9377,69.56,233.51,69.4418Z" transform="translate(-20.1177 -39.0956)" fill="#fff"/><path d="M213.4212,72.7336a.8358.8358,0,0,0,.11.5363C213.6771,73.3146,213.4561,72.2538,213.4212,72.7336Z" transform="translate(-20.1177 -39.0956)" fill="#fff"/><path d="M228.9354,69.6566c-.106.0259.5867.057.4026-.1441A.3289.3289,0,0,0,228.9354,69.6566Z" transform="translate(-20.1177 -39.0956)" fill="#fff"/><path d="M228.2616,71.201c-.1891.1058-.3167-.4016-.3792.1338C228.0811,71.69,228.3738,71.1381,228.2616,71.201Z" transform="translate(-20.1177 -39.0956)" fill="#fff"/><path d="M263.3809,52.5758a12.1409,12.1409,0,0,1-1.2212-.457c.0421-.23,2.3739.0061-.8222-.2125a13.7433,13.7433,0,0,0-2.7856.1235c-.0569-.0919,1,.18.8646.2506a.5761.5761,0,0,1,.1-.2665c.5052-.0985-.3108,1.2067-.8525.7974A28.6736,28.6736,0,0,0,263.3809,52.5758Z" transform="translate(-20.1177 -39.0956)" fill="#fff"/><path d="M262.908,54.8508c-.5237.1939-.48-.2554-.9226-.2707.0093,0,1.1708,1.7085,1.3642.2848C263.1972,54.6444,263.07,54.7907,262.908,54.8508Z" transform="translate(-20.1177 -39.0956)" fill="#fff"/><path d="M260.5334,54.742c-.0679.0248-.5886.0455-.5948.1874C259.8933,55.9736,261.7031,54.403,260.5334,54.742Z" transform="translate(-20.1177 -39.0956)" fill="#fff"/><path d="M265.3517,51.9818c-.79-.6318-.8654.8455-.4048.8654C264.9469,52.8472,265.5053,52.1048,265.3517,51.9818Z" transform="translate(-20.1177 -39.0956)" fill="#fff"/><path d="M260.3471,56.3669c-.1585-.1728-.4239.3656-.19.3757A.348.348,0,0,0,260.3471,56.3669Z" transform="translate(-20.1177 -39.0956)" fill="#fff"/><path d="M258.34,55.3575a.433.433,0,0,1-.46.0689c-.0768.0871.3635.171.4322.148C258.4429,55.5306,258.599,55.0452,258.34,55.3575Z" transform="translate(-20.1177 -39.0956)" fill="#fff"/><path d="M257.7958,56.3722a2.6276,2.6276,0,0,0,.6528-.3084C258.0449,55.73,257.4854,56.0334,257.7958,56.3722Z" transform="translate(-20.1177 -39.0956)" fill="#fff"/><path d="M259.2551,57.4392q-.134.4917-.1264.32C259.3778,58.5034,259.8638,56.8814,259.2551,57.4392Z" transform="translate(-20.1177 -39.0956)" fill="#fff"/><path d="M259.0731,53.6034c.0055-.13-.6088-.15-.6137-.0376C258.4547,53.6827,259.0675,53.7293,259.0731,53.6034Z" transform="translate(-20.1177 -39.0956)" fill="#fff"/><path d="M148.0269,77.4124c-.1763.5151.3162.2576.34.1248Q148.3113,77.2932,148.0269,77.4124Z" transform="translate(-20.1177 -39.0956)" fill="#fff"/><path d="M147.7884,76.0473c-.6866-.4118-.3416.6275.0393.5124A.338.338,0,0,0,147.7884,76.0473Z" transform="translate(-20.1177 -39.0956)" fill="#fff"/><path d="M146.726,75.9428c-.4035.0614.0082.3978.1921.4866Q147.1024,76.1192,146.726,75.9428Z" transform="translate(-20.1177 -39.0956)" fill="#fff"/><path d="M148.053,76.7009c.0914.1635,1.1837.0745,1.2584-.1192C149.4188,76.3035,148.0166,76.6361,148.053,76.7009Z" transform="translate(-20.1177 -39.0956)" fill="#fff"/><path d="M158.1434,76.8728c-2.24-.7681.3216.8732-.26.6953C158.4356,77.7372,158.8778,76.8673,158.1434,76.8728Z" transform="translate(-20.1177 -39.0956)" fill="#fff"/><path d="M149.6556,75.0686c.4416-.11-.3915,1.2184-.379.5305a2.2569,2.2569,0,0,1-.6224.3441C148.48,76.794,151.5043,75.7087,149.6556,75.0686Z" transform="translate(-20.1177 -39.0956)" fill="#fff"/><path d="M156.0632,77.6631c.2833.0123-.0733-.47-.0536-.4848C155.96,77.2151,155.9383,77.6577,156.0632,77.6631Z" transform="translate(-20.1177 -39.0956)" fill="#fff"/><path d="M151.42,76.0254c-.7125-.0309.2813,1.1783.5429,1.2464C151.6463,77.1894,151.9374,76.239,151.42,76.0254Z" transform="translate(-20.1177 -39.0956)" fill="#fff"/><path d="M149.5867,76.5759c-.5033.5662.5281-.3431.22-.196Q149.6967,76.478,149.5867,76.5759Z" transform="translate(-20.1177 -39.0956)" fill="#fff"/><path d="M116.6572,74.2085a4.4786,4.4786,0,0,0-.3789.7125C116.2622,75.2937,117.3887,74.24,116.6572,74.2085Z" transform="translate(-20.1177 -39.0956)" fill="#fff"/><path d="M140.4091,76.4706a.3641.3641,0,0,0,.1979-.3675c-.3131-.3416-.6721,1.2622-.29,1.2719C140.88,77.3893,139.9923,76.4525,140.4091,76.4706Z" transform="translate(-20.1177 -39.0956)" fill="#fff"/><path d="M137.8019,75.5948c-.1722.04-.0539.1815-.0021.3875A.2711.2711,0,0,0,137.8019,75.5948Z" transform="translate(-20.1177 -39.0956)" fill="#fff"/><path d="M136.3668,75.4745c-.054-.0024-.9118.4268-.5977.4755C135.9815,75.9828,136.6786,75.488,136.3668,75.4745Z" transform="translate(-20.1177 -39.0956)" fill="#fff"/><path d="M127.5488,76.4684c.0605.0006.8745-.3058.8736-.3074C127.637,75.7433,127.202,76.4643,127.5488,76.4684Z" transform="translate(-20.1177 -39.0956)" fill="#fff"/><path d="M121.5235,73.7528a.3214.3214,0,0,1-.1787.2487c-.011.2541.4409-.0155.4618-.0995C121.8308,73.8044,121.4006,73.3855,121.5235,73.7528Z" transform="translate(-20.1177 -39.0956)" fill="#fff"/><path d="M198.8186,74.9515c-.0856.1971-.5641.2435-.5882.4365-.0408.3284.76.3437.8605-.0066C199.0657,75.4689,198.9888,74.56,198.8186,74.9515Z" transform="translate(-20.1177 -39.0956)" fill="#fff"/><path d="M197.78,75.5187c-.15-.0543-2.0435-.3555-1.68.2935C196.3043,76.1785,198.2245,75.9521,197.78,75.5187Z" transform="translate(-20.1177 -39.0956)" fill="#fff"/><path d="M203.3153,75.187c.0594-.0874.4942,1.0977.349,1.1473.0846-.0289.8749-.6782.9055-.631C203.86,75.3249,204.01,74.1632,203.3153,75.187Z" transform="translate(-20.1177 -39.0956)" fill="#fff"/><path d="M159.2249,77.4942a.2964.2964,0,0,0-.3582.27C159.0558,78.1017,159.5672,77.5043,159.2249,77.4942Z" transform="translate(-20.1177 -39.0956)" fill="#fff"/><path d="M159.17,76.9774a.3805.3805,0,0,0-.3817-.0967C158.7667,76.9072,159.1589,77.242,159.17,76.9774Z" transform="translate(-20.1177 -39.0956)" fill="#fff"/><path d="M48.4506,59.9c-.3175.1063-.4392-.0231-.6667.167C47.7619,60.5741,48.773,59.7925,48.4506,59.9Z" transform="translate(-20.1177 -39.0956)" fill="#fff"/><path d="M170.5484,74.81c.012-.2769-.494-.18-.4881-.0927C170.0647,74.7828,170.5388,75.029,170.5484,74.81Z" transform="translate(-20.1177 -39.0956)" fill="#fff"/><path d="M172.0332,74.8687a.4919.4919,0,0,0,.4347.0993C172.5409,74.8731,171.9284,74.6816,172.0332,74.8687Z" transform="translate(-20.1177 -39.0956)" fill="#fff"/><path d="M277.1361,43.9615c-.6727-.029-3.82-.2827-4.1117-.8026-.6281-1.1243-3.1782,1.45-3.8009.7708-.1659-.1811-1.22.2433-1.5693-.1462-.24-.2674.1628-.4334-.3927-.4576-.1764-.0076-1.052-.2231-1.0866-.3495-1.8813-6.8412-236.1708-3.3518-236.3472.663.009-.2155-1.7192,1.486-1.1366,1.77.2043.1,1.3509.3782,1.3405.6158-.03.6892-2.1356-.4264-2.147-.1621-.0149.3411-3.2065-.1242-3.2022.67-.0005-.0941-2.4957.1343-2.862.1184-.1294-.0055-3.9018,4.2273.2156,5.15.23.0517,2.51-.6953,2.4781-.3067-.1219,1.4791-1.8045-.03-1.3738.471a.4124.4124,0,0,1,.3653.2466c-.01.2352-1.7239-.4614-1.75.1293.002-.0446.2957.7341.2087.6674.0218.0168,1.8432-.0379,1.9686-.0194.1024.0152,1.6766.3708,1.6891.0812a2.0114,2.0114,0,0,1,1.0628-.82c.23.0242.2906.4889.43-.1307.0663-.2946,1.1594-.5175,1.3172-.266.0495.0789-.3751.5972-.1992.6558-.2244-.0748,1.5161-.6931,1.3911-.5113-.82-.2211.62-.8057.831-.4728a2.4424,2.4424,0,0,0,.0344.52c.7733-.1357.4342,1.12,1.0513.662.3742-.6515,1.1115-.3743,1.035-.245s-1.5192,1.2719-1.5655,1.6962c-.0407.3657,2.7481-.4933,2.845-.4717.414.092,1.9139,1.021.9979,1.505-.23.1216-1.476-.4378-1.33.2341.78.2819.6274-.0776.9963,1.3481.0727.2814,2.3227,2.0931,1.5017,3.29-.5.73.8077,1.409,1.0694,1.8768-.101-.18,2.7836-.6395,2.8984-.23.0508.1816-1.0369,1.5942-1.4245,1.1726a.7624.7624,0,0,0,.73.0691c.2965-.2253.405,1.1437,1.3035,1.1828.0664.0028.2209-.6743.7939-.6.1249.0161,1.0863.5736,1.1016.222.0185-.4261,2.4287.7314,2.4195.7357.37-.1727.0821-1.0029.4155-1.3543.3159-.3327,1.0816.4171,1.3569.0119-.1632.24-.9167-1.7916.393-.75,1.0923.8685.76.4838,2.3142.29,1.0184-.1269-.9535-2.6932-1.2414-1.6578a11.0332,11.0332,0,0,1-3.4073-.05c-.2532-.1182-.2862-.4754-.6127-.49-.6384-.0276-.0651-.6611-.0864-.67-.1015-.0427-2.2619-.2217-2.244-.2478a1.0016,1.0016,0,0,1-1.4935.0487c-.1265-.1294-1.8052.5311-1.8587-.9869-.0333-.94,1.0827-.6335,1.9016.0915,1.2006,1.0632,2.6668-.1193,3.5936-.2681a8.07,8.07,0,0,1,1.3133.2164c.31-.1594-.264-.5405.4789-.1112,2.95,1.7069,3.9622.22,7.3471.3673.2955.0127.24,1.048.2424,1.0593.0237.1308,1.2939-.1576,1.2793.2032-.0077.1938-.8337.5164-.84.51.0226.0246,2.1455.0141,2.0825.2046.0781-.2365-.3645-.49.0924-.5869,2.081-.4394,2.6349.7894,1.8733,1.0971-.1294.0524-1.2076.1013-1.066-.3513-.188-.0953-.6991.0389-.689.2965.0229.5843.8929.0258.9529.3392-.0483-.2527-1.5965,1.5351-1.4871,1.54.9115.04,2.6977-.5493,3.8248-.2778,1.8529.4466-3.9366,1.5624-3.7929,1.15-.4138,1.1879-2.07-.58-2.8806-.5775.3708-.0015-.4572.7008-.4491.6793.7473.6051-.7468.4835-.7731,1.0857.0007-.0146,1.2275.2722,1.4218.12.4941-.3894-1.9816-.412.7468-.9747.8043-.1658.8926.7532,1.3945,1.099.6647.4582,1.9485-.8922,2.5886-.7121.49.1379,1.5969-.5375,2.0764-.7748.034-.0169.8687-.0235.7326.1474a1.1792,1.1792,0,0,1,1.158-.1845c.7466.3478,1.1746-.8969,1.7447-.9446.3723-.0313,1.6375.7779,1.6224,1.127-.0125.2873-1.2758.2488-1.4264.2005-.0848-.0272-.2221-.4493-.5651-.2994.9714-.4246-.86,1.8257-.7569,1.5117-.1244.3776,1.9569-.26,1.9242-.7565-.0583-.89,3.0233,1.1967,3.1654,1.42.52.8168-.6049.3449-.7477.8075-.2337.758,1.6219,1.0262,1.6392.6278-.0368.8462-.1322.2381.3795.784.445.4744-1.1781.0759-1.2552.5782.71.5987-.6536.0089-.5559.1386.1559.2064,1.2366.6289,1.2594.1017.0334-.77.7858-.0639.75-.0666.5172.0394,1.6476-1.16,2.2623-1.24.1027-.0133,1.6953-.393,1.476.0268-.3046.5829-.2679.7409-.9192.8634-.1065.02.27.3829.364.387.39.017.0686-.965,1.4025-.52,1.08.36.3445.3131.7811.8449.2448.298.372-.7368.4794-.7753.2362-.085,1.4315-.5666,1.5085-.3366-.0693-.2074,1.3836.8727.468.6561-2.8538-.6776-.4777.5049.3526.1472.2177-.0934.949-.5155.9727-.4925.2023.1975.13.8419.4927.9994.2052.0891.324-.3536.5175-.0079.19.34-.6617.3351-.6743.2377.1634,1.2771,2.0075-.6449,2.3891.5736.2015.6433,1.437.0171,1.769-.0117,2.5355-.22.7284.7478,1.0256-.5671.0832-.3671-.4038-.26-.627-.3066-.9142-.1932-.3385-1.3845.2843-1.1711.1679.0575.3352.5072.5469.3508,1.0041-.7416,1.174.446.4806.3133-.419-.08-.5837.9235-.1017.2825a7.925,7.925,0,0,1,1.56.2816c-.0371.326.3733-.0673.3855-.3483.0054-.1223-.4938-.32-.4588-.352.3732-.3423.8492.2071,1.0927-.0692.5739-.6508.5522.6014,1.26.3733.34-.1094,3.7106.7858,3.6956,1.23-.0081.2418-1.1834.1513-.8042.5649.354.3862,1.6-.8642,1.5628.4014.01-.3587-.4971-.9283.3066-.741.3724.0867,2.6224-.8317,3.5518-.2946.1152.0667.7707.746.8.7473-.1835-.0079.9137-.4141.924-.4242.2645-.2593.0021-.4588.4772-.4382.3007.0131.822.3458.3942.665,1.2472.2824-.8576.8512-.8912.6076.0967.6949,1.3265.6017,1.5933.1726.5548-.8917,2.8011-.5883,2.9339-.124-.1464-.5115,1.3592-.3018,1.363-.309.0984-.181-.9679-.7663,2.2-.39,1.4091.1674-.5462.8445-.5637.8134.1693.3024,1.2717-.0882,1.3628.1842-.8816.6858,1.3069.1347,1.486.1424,1.1111-.88.5239-.062.6538.0014.389.19.8874-.06,1.2669-.1326,1.2616-.2426.307.51.7266.6923.11.0477.2866-1.3955.9421-1.196.426.13.9379.5871,1.4527.5736.6771-.0175,1.3321-.7984,2.0822-.82a4.9491,4.9491,0,0,0,1.1807-.1193c.944-.2652.4432.83,1.1623-.0976.0613.0255.8176.379.8606.3024-.2217.3952-1.4484.8307-1.4622,1.15.03-.6814,2.1.106,2.1906-.1086-.0033.008-.056.78-.0488.7315-.0392.2641-.3861-.1143-.39.2287-.008.7291-1.1322.3194-1.3838.4732-.1956.1193-.8152,1.0329-.1318.9184a11.7378,11.7378,0,0,0,2.1511-.9417c-.1024,1.3223.7221-1.4259,1.4864-.4193.3362.4429.9667-.3587,1.3421.0163.4981.4979,1.2589-.1629,1.4934.062.349.3344-1.0978.5119-1.2141.5329-.0034.0006.4953.6081.5557.45-.1566.4093.3934-.6782,2.5394.2435-.0739-.0318,1.0828.5182.9326.5139.904.0259.01-.62-.0113-.6843-.0971-.29-1.0693-.0717-.8452-.6923.1118-.31.7543-.3838.7308-.34.3756-.7015.3762-1.3476,1.426-1.4886.2638-.0356.3536.2663.5743.3427.12.0416.5282-.1045.6551-.1,1.9857.0639-1.8117.9864-1.6738,1.3313.1665.4163,1.7057-.13,2.04-.061-.2775-.057-.1482,1.3088.0632,1.075-.1471.1625-.8757-.2343-1.0809-.19a9.1338,9.1338,0,0,0-1.2127.5c.0407-.06,1.6071.647,1.7386.6834.4654.1286,2.1011-1.4186,2.3727-.8146.0049.0109-.5593.9632-.2234.8814a1.408,1.408,0,0,0,.5861-.7179c.0193-.2613.44.2942.5623.1149.007-.01-1.1026-.7347-.3371-.8115,2.0657-.2068,2.9046.335,3.9252-.3824.9765-.6864,5.3185.3144,3.72,1.4068,2.6208.0408,12.3223-2.6224,14.0137.4462-.3044-.5523,1.22.0428,1.4143.29.5941.7531.3336.6721.6526,1.2775.1289-.2585-.1487-.6693.26-.7533.4533-.0931.3631.3878.5767.3971,1.1861.0514-.4731-1.3336-.45-1.062-.0506-.584.69-.6562.725-1.2562-2.8239-.239-2.8836.2769-4.0519-.5581-.6044-.4315.6768-.7264.6794-.7233-.8422-.1282.0364-.1927.042-.3225-1.2968-.7643,2.2771-1.5872,1.8217.1541-.0408.1558.0444.99.4863.6.1414-.1246.3312-1.933.66-.845.0972-.01,1.7926-.881,1.7634-.2094-.0466,1.0761-1.6313,1.9923.177,3.4032,1.7449,1.3627,1.0664.24,1.6433.4907.6138.2667.1617-.4178.2121-.4832-.023.03,1.5607,1.3069,2.0382,1.0233-.3675.2183.42-1.5394.4085-1.273-.0122.2784-3.612.3816-1.368-1.2208,1.7865-1.2751.5984.12,1.2277.6315,2.2475,1.8281,3.05.46,3.329.6256,1.8667,1.1053,1.5948.5424,2.14.6.6212.065.318.6565.7973.0351.4574.02.9812,1.1523,1.1825,1.17.0572.005.9606-.6709,1.0153-.49,0-.0006,1.115-.0059,1.0182.0745.3237-.6543.3346-.6486.6673-.388.52-.2948-.1352-.6865-.1646-.8224a.421.421,0,0,0,.2469-.244c-.1926-.5752-1.55,1.3252-1.6954,1.1433a5.13,5.13,0,0,1-.2412-.8472c.2-.8151-1.9341-1.5688-1.4071-2.03,1.1074-.9685,1.2949.1476,1.4243.1557.9338.0592-.1472-.7906,1.6733-.3465.408.0448.3984-.3209.7319-.354.1361-.0135.3259.7386.391.7874.2332.1742.6431-.2045.8719.3617.1256.31.3649.3973.5541.5687.2469.2238.3017-.7836.37-.8668.1487-.182,1.1541-.1431,1.1648-.389.0057-.1314-2.7484-.1565-3.0187-.3278-.34-.2155.3267-.6535.5661-.5961.4829.1154.7291.8044,1.2759.3836.4654-.3583.7737.0729,1.1614-.1578.56-.3331.4435.6427.8308.2877.3082-.2827.4911.5394.7619.9125.0591.4073-.4623.5884-.5574.9186-.0671.2327,1.0964-.3686,1.203-.4591.5957-.5059.4611.042.8817.0641.2164.0114.2833-.4131.492-.4715.279-.0781,3.56-.0133,3.5479.2762-.0136.3124.8691-.1941.9344-.229,1.41-.7556,7.9156-.8807,7.7241-.4593.32.2651,2.4572-1.48,3.1862-.8172.0541.05-.5252,1.2786-.8,1.1066.1565.0981,2.4106-.0009,2.4.2435.0249-.5788-1.6269-.4669,1.1586-1.07.9023-.1955.559-.1176.8682.4352.0948.1691.5407-.3851.6794-.3791.2614.0114-.0852.5091.2386.5232.04.0018,1.24-1.3875,1.2089-.6716-.0322.741,1.5636-.385,1.7878-.1886-.1692.5143.362-.0473.8353-.2425.8073-.333,1.5006.3506,2.2536.2471.5664-.0776.6627.0991.5293.6961-.1757.7821,1.9737-.1773,2.1975.2233.1962.35-.4332.42-.4619.53.212.3087.2367.3551-.4041.4948-.031.0372,1.8065-.9506,1.7941-.9727-.0289-.0516.478-.0452.5462-.1343.1457-.19.4747-1.2567.6744-1.2567,1.74,0,2.0974-.7505,1.9679-.7389,3.0994-.2772,1.901.2706,1.6872,1.0737-.2965,1.1137,2.3071-2.6658,2.8229-1.1263.1012.3022,2.2937-.2946,2.7209-.2377-.0813.1332-.2727.3954-.2642.5522-.0035-.064.8706-.5094.9112-.6688.115-.4525-5.0323-.3923-4.925-.8839-.483,2.2161-1.4776.3887-1.3484.4528-.1062-.0526-2.8309.4077-3.2706.408-2.205.0015.2995-.8635.4694-1.1959.1758-.3443-.5408-.3236-.6007-.4759-.09-.23.6251-2.203,3.0907.0357.3826-.5236.3414-.3468.45-.1105.6574-.3963.7428.1892,1.0805.1988.6954.02,3.59-.4536,3.99-.473,1.1836-.0575-.0464,1.05,1.7513.527.715-.2081,1.5085.25,2.2139-.0234a14.2272,14.2272,0,0,1,1.617-.6712,7.1362,7.1362,0,0,1,1.7715.15c1.2607.031-1.1528-.5147,6.0424-.903a3.0184,3.0184,0,0,1,1.0082-.0773c.4669.1647-.25.4974-.2735.4713.0884.0964,1.7238-.9562,1.7015-.4407.0058-.1352,1.9738-.0929,1.7193-.7123-.0734-.1785-2.3243-.3025-2.2311-.7346a5.5441,5.5441,0,0,1,1.4882-.6054c.1042.0343,1.0282,1.6444,1.2006.95-.02.08-.2936-.1945-.1238-.396.2452-.291.2587.4517.2721.5179.0542.2685.9821-.4785,1.0344-.559.3-.4615,2.6462-.1168,2.5049-1.3649-.0186-.1641-.999-.1051-1.1636-.0051-.82.4983-.2905-.5386-.2907-.5217.0055-.44-4.3982-.2511-4.5275-.3026-.3278-.1309-.5158-.5871-.937-.3756-.1918.0964-.2664.5975-.5461.5442-.2349-.0449-.3507-.3418-.8082-.3556-3.0979-.095.0488-2.0036.2888-1.7666-.0959-.0949.783.2622.7064.288.2393-.0806.5436-.446.8234-.5441.3922-.1374.45.2725.8052.25.2124-.0135,3.177-1.0821,2.5354.0421.4008.5872,2.0745.9038,2.1237-.1026a2.1093,2.1093,0,0,1-1.9207-.6853c-1.0943-1.0342,2.138-1.98,2.4114-1.3842.1558.3392,2.1592.0478,2.7472.2716.5939.2259.406.5067,1.2583.3095.2015-.0465.7607.0065.9314-.15.5374-.4926.42.1789.6856.2675.0838.028.6017-1.7369-.3-1.2614-.256.1349-.41.5347-.78.6769-.0431.0164-1.2207.1462-.9753-.0756,1.1529-.3095-.1641-.6108.2156-.9714.0826-.0785,1.3306-.4483,1.2152-.4718-.3422-.07-1.3432.5182-1.439-.0269-.0524-.2979,3.2742-.456,2.3494.1854-.0458-.351,1.73-.2253,1.8758-.2832a3.56,3.56,0,0,1,.0744-.7984c-1.692.2332.0407-.9049.13-.7454-.1479-.2646-1.6911.4317-.3275-1.031.7746-.8312.7232.0115,1.0314.0249.2092.0091.2426-1.8866,1.1315-1.044.1081.94.8458.3928.8515.2629.0113-.2632,1.2062-.2049.7145-.65-1.0572-.9563-4.0951-1.5031.0747-1.3212.15.0064-.0708-1.0661.579-.6811.4325.2563.9118-.27,1.3722-.1968.2577.0411,3.33.0749,3.356-.5319.0228-.5262-1.29.1-1.4283-.1639-.1864-.358.8256-.3432.849-.7078-.0126.197-3.7322-.492-1.512-.9563.2866-.06.6418-.5954.6753-.594a3.6687,3.6687,0,0,1,.7464-.1314c.35-.117.687.4829.697.4808.7179-.1458.5244-.456,1.4487-.3341-.0641-.0085-.069.2976.2275.3529.5891.11.7288-.1337,1.2484-.1679.3412-.0225.1089.3726.5521.2258.523-.1732.0314-.6909-.107-.785s.7846-.3484.7262-.315c.2826-.1607.6339.224.9095.236.3883.0168.0346-.6667.0535-.7413.0293-.1161.5135-.1555.52-.3109.0057-.1294-8.374-1.38-8.5033-1.3893-.8822-.0633,2.6477-2.1389,3.6915-.839a.335.335,0,0,1,.3-.1181c.5209.083.1351.3564.3917.5305.1516.1031.2852-.5561.4431-.5492,1.2516.054,4.3979-.1971,3.1837,1.0912.7533.512.7694-1.9648,1.4071-.5051,1.0349-.5706-1.1176-1.2982,2.189-1.3008,7.2162-.0026,1.0422-1.4546,3.4763-1.1547.1351.0167,1.304-.1523,1.2077.2068-.1337.5,1.0076.4976.5357.93-.3666.3365-1.0981-.7-1.2843-.6354-.5556.1919.56.7778.64.8048.5908.198.8953-.1373,1.3784-.3388.702-.2928.2259.295,4.1378.0028.2368-.0177.54-.913,1.0678-.6858C279.9426,45.8283,281.714,44.1579,277.1361,43.9615ZM28.0868,49.863c-.2605.1323-.0888.3408-.11.5469-.0183.1829-.9276-.8075-.7462-.0875-.6241-.0271-.59-.4672-.1337-.72C27.39,49.44,28.4888,49.6587,28.0868,49.863Zm3.4072,2.6449q-.205-.1113.0111-.256Q31.71,52.3632,31.494,52.5079Zm5.1336,7.277q-.1577.1464-.0549-.06Q36.8138,59.4558,36.6276,59.7849Zm.3281-.7629c.0054-.1252.2552-.7778.3942-.7717C37.31,58.3176,36.9473,59.2036,36.9557,59.022ZM47.7112,61.88q.11.1372-.0721.202Q47.5287,61.9448,47.7112,61.88Zm-5.7519-.2736c2.2114-1.0191,3.58,1.543-.3529.1625ZM40.1408,49.4529c-.0106.2442-.4149-.0514-.2653-.1885C40.023,49.1293,40.1046,49.4372,40.1408,49.4529Zm.2118-.1028c-.1014.149-.2061-.5429-.05-.4832A.3521.3521,0,0,1,40.3526,49.35Zm1.8429-1.1476q-.1283.2037-.1536-.0066Q42.17,47.9921,42.1955,48.2025Zm6.6435,4.6913c-.3465-.0658-.093-.23.0547-.2291Q49.0394,52.8528,48.839,52.8938ZM54.81,55.5954c-.073.0669.3266-.3,0,0C54.7747,55.6279,54.8458,55.5628,54.81,55.5954Zm1.7558-6.5638q-.11-.1371.0721-.2021Q56.7483,48.9668,56.5661,49.0316Zm.6351-3.6653c-.4762-.304.0291-.3737.23-.1088Q57.3834,45.4126,57.2012,45.3663Zm.0075,16.3107q-.176-.08-.0544-.2076Q57.33,61.55,57.2087,61.677Zm1.0239.0445q-.176-.0805-.0544-.2076Q58.3543,61.5943,58.2326,61.7215Zm3.19,1.2488c-2.4636-.2182-.9368-1.3522-.8075-1.3318.5575.0888.1653.5946.8711.6566C62.3119,62.3677,62.3534,63.33,61.4227,62.97ZM67.55,66.24q-.2889.08-.12-.17C67.7488,65.8337,67.533,66.255,67.55,66.24Zm.4264.11q.1281-.2037.1536.0067Q68.0013,66.5608,67.9759,66.35Zm.9816,1.1243c-.6406.5749-1.1456-.4822-1.0491-.5417C68.1181,66.8051,69.9244,66.5674,68.9575,67.4745ZM74.2,44.6682c.176-.2482-.0225.2875-.0592.3275Q73.9412,44.9236,74.2,44.6682Zm-.02.7505q.0254.1186.05.2374C74.1527,45.7277,73.9474,44.9753,74.18,45.4187Zm-.53,20.5559c-.1636-.0747-.8442-.547-.2152-.6393C74.2058,65.2229,73.3925,65.857,73.65,65.9746Zm.7005,2.3963q-.1629.2028-.2559-.0112Q74.2577,68.1572,74.3507,68.3709Zm2.5127-4.7122q-.2038-.1281.0066-.1537Q77.074,63.6333,76.8634,63.6587Zm.43-.5968q-.11-.1373.0722-.202Q77.4759,62.9972,77.2936,63.0619ZM86.36,40.8878q.1761.08.0544.2074Q86.2387,41.015,86.36,40.8878ZM78.906,62.719c.1636-.2407.832.1308.7874.3873C79.6068,63.6044,78.5229,63.2826,78.906,62.719Zm-.4466,3.9323c.0569.194-.2957.1358-.2867-.0715Q78.3413,66.4521,78.4594,66.6513Zm-.9014-2.45q.1719-.2015.3583.0155Q77.7442,64.4188,77.558,64.2018Zm.2515,2.4729c-.474-.0207.124-.9762.34-.591C78.1126,66.0187,77.8306,66.6756,77.81,66.6747Zm4.3569,3.314a.2877.2877,0,0,1-.4411.0286C81.6969,69.7975,82.328,69.6168,82.1664,69.9887Zm3.8023-3.8677c-.2713.1873-3.5925.5109-3.601.7076-.0163.3762,2.9132.0605,1.274,1.5086-.2417.2136-1.1787-.0128-1.4567-.1145-.4078-.149-.1155-.4113-.1781-.6977-.0406-.186-.5152.5805-.5186.6565-.0187.433-1.12.29-1.2833.2857-2.5167-.0608-3.4857-1.6546-.6345-1.4919,5.1352.29,1.0264-.3607.9476-.5411C79.98,65.2043,87.7017,64.928,85.9687,66.121Zm2.2153-.945q-.2-.1113.0089-.2047Q88.3932,65.0826,88.184,65.176Zm.53,1.972q-.2037-.1281.0067-.1535Q88.9245,67.1225,88.7138,67.148Zm1.1683-.9176c.0388-.8919,4.0047-.4355,1.1273-.8213-.0215-.0029-.01-.601-.0672-.5974a4.2923,4.2923,0,0,1,1.7482.12c1.6561.71-.4033.2454-.4243.7328-.011.2526,1.6336.177,1.6413-.0019-.0075.1724-.29,1.03-.5386.91C92.711,66.2544,92.7,65.84,92.07,66.27,91.7467,66.49,89.8344,67.328,89.8821,66.23Zm9.3453,3.8939c-.3762-.0858-.6527.2058-1.0379.0566-1.6913-.6548-5.4918-.5694-5.6252-.6719-.0446-.0341-1.1274-.8121-1.0579-.38,1.8768.6394-2.5316.5731-1.0619-1.1841.21-.2507.9326.1466,1.2579.1364.8276-.0258.5723.4763.9281.5583-.0692-.0159.6663-.6922.5725-.3013-.1373.57,1.8821.9088,1.9211.0165.0155-.3569,1.5488-.2632,1.6278-.03.2034.6017-2.5241,1.35.2757.7264.8846-.1969,2.6055.9934,3.2437.6948C101.01,69.4012,102.8367,70.95,99.2274,70.1243Zm6.5378-25.2909a.3213.3213,0,0,1,.1524-.4294C106.0468,44.41,106.0564,45.2146,105.7652,44.8334Zm14.6591.6107q-.11-.1372.0722-.202Q120.6068,45.3793,120.4243,45.4441Zm1.7984-1.2555q-.11-.1371.0723-.2019Q122.4051,44.124,122.2227,44.1886Zm2.9748,6.4143c-.0343.0753-.0237-.3285-.0156-.3462A.2666.2666,0,0,1,125.1975,50.6029Zm-.4711,23.34q-.11-.1373.0721-.202Q124.9086,73.8785,124.7264,73.9432Zm5.8828-2.13c-.3667.2591-1.7822.1435-1.649-.5581C129.0741,70.6548,132.03,71.4676,130.6092,71.8136Zm29.5743,4.284c-.1068.157-1.4852.0506-1.1849-.5336C159.3406,74.8985,160.62,75.4539,160.1835,76.0976Zm4.4527-2.1131q.1206.1792-.0731.2454Q164.4515,74.0574,164.6362,73.9845Zm2.7044.2322c-.2386-.1035-1.9946,1.0257-2.3908.9241-.1613-.0413-.504-.6-.418-.6871-.0308.7449-.8874-.3779-.2194-.5083.251-.0491-.035.4546.3709.2921.2145-.0859,1.22-.9256,1.4478-.6769.1563.1695-.1681.5594-.0632.7137-.1148-.1686,1.072-.4456,1.1887-.53C167.2415,73.7361,167.6144,74.3355,167.3406,74.2167Zm.3188.1886c-.2356-.2571.2534-.32.2428-.0749Q167.853,74.5823,167.6594,74.4053ZM169.5,41.66q.2315-.1083.2695.0482C169.7755,41.706,169.3735,41.7046,169.5,41.66Zm-.8354,32.4984c-.0737.17-.552.0449-.5471-.069C168.1234,73.9552,168.7745,73.9055,168.6647,74.1583Zm1.65,1.5924.05.2374C170.2873,76.06,170.082,75.3073,170.315,75.7507Zm.1685-10.0788q-.1281.2037-.1535-.0068Q170.4579,65.4613,170.4835,65.6719Zm9.69,8.2259c-.2233.0713-.8658-.1016-.5337-.47C179.8462,73.1992,180.3493,73.6391,180.1735,73.8978Zm1.431-5.7943q-.11-.1372.0721-.202Q181.7869,68.0387,181.6045,68.1035Zm1.9225-8.8408q-.11-.1374.0722-.2021Q183.7095,59.1979,183.527,59.2627Zm2.0338-9.0414q-.11-.1372.0722-.2022Q185.7433,50.1563,185.5608,50.2213Zm.85,2.9161q-.1592.2-.1463-.0708Q186.4194,52.8539,186.41,53.1374Zm2.4058,12.33q-.0858.231-.224.131C188.592,65.6012,189.1147,65.1189,188.8161,65.4676Zm5.2625-23.2134h0C194.0431,42.2868,194.1142,42.2218,194.0786,42.2542Zm.483,9.8966q-.1282.2037-.1537-.0067Q194.536,51.94,194.5616,52.1508Zm4.0141-10.7592c.0236-.2779-.0367.4384,0,0C198.5859,41.2726,198.5668,41.4994,198.5757,41.3916Zm-.4112,30.5023c-.3759-.2684-.9845-.0146-1.4206-.3343.1352-.16.8456-1.3789,1.9-.9382.27.113-.234.3967-.2385.5008-.0035.08,1.2691.0786,1.37.4653C199.1619,71.9086,198.562,72.1775,198.1645,71.8939Zm13.7717.7324a.1747.1747,0,0,1,.2192.1184C212.06,72.9935,211.3631,72.7684,211.9362,72.6263Zm-2.77-3.6391c-.0089.2051-1.3271.2606-1.3394.3061C208.39,68.55,209.1807,68.6524,209.1664,68.9872Zm-4.0376-24.9518c.0235-.2777-.037.4381,0,0C205.1388,43.9164,205.12,44.1432,205.1288,44.0354Zm-.0932-1.5854q.1281-.2039.1535.0066Q205.0612,42.66,205.0356,42.45Zm-2.7148,27.355a.1588.1588,0,0,1,.2418.0694A.1588.1588,0,0,1,202.3208,69.805Zm2.2669.3932c-.3081-.2114-.7747.2534-.5012.4307.1555.1009.91.033.8175.4263-.2945,1.2593-3.5279,1.345-3.33-.0331.1385-.9622,1.203-.28,1.6-.5586.2411-.1688-.12-.5322.2881-.5721a3.8944,3.8944,0,0,0,1.0472-.8572c.2-.6723.5876.2093.6884.2578-.1714-.0824,1.94-.2659.7726.1913C205.6132,69.623,205.1,70.55,204.5877,70.1982Zm.41,2.7206c-.292-.2029.523-.301.5093.0149A.3613.3613,0,0,1,204.9979,72.9188Zm.521-1.4829c-.3837-.3072.6636-.0774.6262-.0223A.4763.4763,0,0,1,205.5189,71.4359Zm.6,1.3838c.3648-.2993-.528.5416-.5131.1943C205.6119,72.8824,206.31,72.0846,206.1193,72.82Zm.8385-.1312-.3211.188C205.9647,72.931,207.8563,71.8643,206.9578,72.6885Zm1.1514.8987c-.3968.3527-.7491.0586-1.0235-.2727-.1522-.1836.6668-.0756.5887-.0838.6666.0693.12-.0554.3092-.2687C207.9579,72.9909,208.3926,73.2849,208.1092,73.5872Zm-.6495-.8733.2065.1116C207.653,73.13,207.0068,72.6943,207.46,72.7139Zm.8631.3453q-.3036-.1325.0061-.1395Q208.6324,73.0523,208.3228,73.0592Zm.3583.0155c-.2587-.1837.3935-.1952.468-.1577C209.3348,73.0106,208.9531,73.2678,208.6811,73.0747Zm1.3569-1.73c-.823.4353-.5183.6884-1.5978.6591-.1529-.0043-1.6441-.3573-1.7254-.3119-.4747.2653-.2583-.7367,1.1568-1.0945C209.7213,70.13,211.1279,70.9336,210.038,71.3443Zm2.4579-21.9381c-.1966.317-.3256-.3048.0173-.29Q212.5048,49.261,212.4959,49.4062Zm7.2678,1.2742q.2147.1431-.0721.2021Q219.4767,50.7394,219.7637,50.68Zm-3.0025,7.7383q.2407-.2693.0548.06Q216.6584,58.6248,216.7612,58.4187Zm1.484,10.5577q-.3026-.1157.0088-.2047Q218.5569,68.8875,218.2452,68.9764Zm.7308-.3747c-.3312.3353-2.9887.0233-2.9962.106.7769.5852-.69.2015-.6767-.1654C215.3252,67.9113,219.4193,68.1525,218.976,68.6017Zm1.1266-17.5989q-.2-.1112.0089-.2048Q220.3121,50.9093,220.1026,51.0028Zm-.3715,16.5454q-.0946.2733-.1441.0564Q219.6925,67.3189,219.7311,67.5482Zm1.494-.3152q-.1792.3675-.3381.0809Q221.0708,66.94,221.2251,67.233Zm1.2612-23.5877q-.1573.1464-.0546-.06Q222.6724,43.3161,222.4863,43.6453Zm-.6888,23.8441q-.1281.2038-.1536-.0067Q221.7722,67.2787,221.7975,67.4894Zm1.5778-17.6326c-.3371.4212,0-.36.1075-.2428A.3753.3753,0,0,1,223.3753,49.8568Zm2.04,10.1708Zm-.0927,6.7131c-.397-.433,1.2015-.0578.95.0334C226.12,66.8294,225.4374,66.8665,225.3221,66.7407Zm2.6129.7764c-.1709.0554-1.6909.9855-1.73.4552C226.1227,66.8474,228.5975,67.3016,227.935,67.5171Zm11.59-1.8226q.2148.1431-.0721.202Q239.2386,65.7537,239.5253,65.6945Zm-1.2312-.33a2.0893,2.0893,0,0,1,.4622.183C238.7434,65.8444,238.1377,65.4989,238.2941,65.3646Zm-.7861,1.4733c.08.0035.4221.3227.2929.3284C237.9634,67.4554,236.8319,66.8086,237.508,66.8379Zm-2.763,1.3162q-.2-.1113.009-.2048Q234.9544,68.0606,234.745,68.1541Zm.0486-.9211c.3739.0162.024.4282-.1534.2348Q234.4727,67.2184,234.7936,67.233Zm-3.8875-.5791q.1761.08.0544.2074Q230.7844,66.781,230.9061,66.6539Zm-1.23.8407c-1.0772-.5885-1.4251-1.2289.3189-.903C230.6922,66.7224,229.754,67.3015,229.6763,67.4946Zm.5279-2.9455c-.2468.2421-1.75.5372-1.2328-.0844.3287-.3947,1.78-.1214,1.004-.9673-.7453-.8129.9231-1.2527.8851-.38-.0219.5054-.3308.2387-.4712.564C230.2149,64.0854,230.6333,64.1277,230.2042,64.5491Zm3.1492,2.6681a.2457.2457,0,0,1,.404.0587C233.7561,67.3053,233.1351,67.4581,233.3534,67.2172Zm.5479.7572a11.4094,11.4094,0,0,1-3.5927.2437C230.58,67.9059,233.7744,67.5343,233.9013,67.9744Zm-1.7283-8.1951q-.0948.2731-.1441.0565Q232.1344,59.55,232.173,59.7793Zm2.7147-15.99c.0237-.278-.0367.4385,0,0C234.898,43.67,234.8787,43.8966,234.8877,43.7888Zm.098,7.1359c-.9908,1.047-2.5538.7828-1.1517.5129-.2456.1188-.5479-.4874-.47-.7262.0864-.2639.7548-.5257.9637-.778C234.58,50.29,235.3875,50.5,234.9857,50.9247Zm.7791-.62c-.1814-.542.8984-.0461,1.0116-.055C236.655,50.4172,235.85,50.5575,235.7648,50.3045Zm3.2892,1.3815c-2.9651-.05-1.1182.4076-1.9454.3628-3.3626.2125,1.41-2.1047,1.3747-2.3572-.0278-.2-1.356.2135-1.4643-.2592-.1039-.4537,2.1369-.8092,1.7471.757-.0611.2458.3784.1692.4253.2515.209.3667-.394.7224-.3454,1.0694-.0195-.1394.5486-.302.5972.0274Q239.3582,51.787,239.054,51.686Zm.3159-1.4509c-.4646.1556.1648-.253.1606-.1561Zm.3755.8q-.187.2143-.2047-.0089Q239.7278,50.8117,239.7454,51.0351Zm.1506-.7116q-.2887-.1454-.08-.26Q240.1048,50.209,239.896,50.3235Zm.3082,1.2369c.0638,0-.1778-.7666-.1717-.7923C240.0874,50.5369,241.5259,50.9737,240.2042,51.56Zm2.8125-3.0381c-.1417.13-.8334-.06-.84-.2233C242.16,47.871,243.3324,47.79,243.0167,48.5223Zm.5241-2.5713c.2819-.343,2.3532-.4915,2.3713.1055C245.9252,46.4921,243.1568,46.4177,243.5408,45.951Zm.6827,2.34c-.413.1646-1.3016-.857-.1837-.752C245.0506,47.6335,244.9069,48.018,244.2235,48.2906Zm-.24,2.0053c-.4732-.0206-.0229-.6227-.4063-.4441-.6123.2852-.333-.6138-.2381-.61.9062.8309.4173-.1148,1.5234-.1079C244.7838,49.1337,244.1162,50.3016,243.9838,50.2959Zm2.577,1.9654q-.1595.2-.1465-.0708Q246.57,51.9775,246.5608,52.2613Zm.3341-.41q-.2679.2424-.1537-.0536Q247,51.56,246.8949,51.8515Zm.3869-1.7358c-1.6668,2.9059-4.2092,1.3442-2.4484-.2692C245.6647,49.0844,247.9293,48.9871,247.2818,50.1157Zm15.0111-.9739q.1871-.2147.2047.0088Q262.3106,49.3651,262.2929,49.1418Zm-.3345-.4249c.1827.0079.0594.2847.0085.3012C261.7646,49.0838,261.7063,48.7059,261.9584,48.7169Zm-1.3927,1.2218q.2037.1283-.0067.1536Q260.3552,49.9641,260.5657,49.9387Zm-2.2918-.4976q.29.1123.0478.1406Q258.049,49.4776,258.2739,49.4411Zm-1.3426-.185a1.8894,1.8894,0,0,1,1.09.2144C258.0121,49.6865,256.7022,49.4666,256.9313,49.2561Zm-6.2773-2.5687q.2.1113-.0089.2047Q250.4446,46.7808,250.654,46.6874Zm-.0649-2.9444.0551.2332C250.4947,44.1134,250.3806,43.3458,250.5891,43.743Zm-.3838.4328q.2411-.2693.0548.06Q250.1028,44.3821,250.2053,44.1758Zm-2.1718-.6243a.548.548,0,0,1,.4923.1722C248.508,44.1359,248.0287,43.5559,248.0335,43.5515Zm-.0652,15.1238c.1074.0046-.1781-.3724-.1808-.3095C247.8053,57.9541,248.3841,58.6934,247.9683,58.6753Zm3.0633-7.9663c-.1663.0551-1.3837.248-1.3634-.22C249.7155,49.4,252.0005,50.388,251.0316,50.709Zm-.5064-1.0584q.1374-.11.2021.0721Q250.59,49.8328,250.5252,49.6506Zm5.2125,2.8041c-.0126.2911-1.5291.5667-1.5671.1365C254.1375,52.2172,255.7552,52.0534,255.7377,52.4547Zm.1271-1.7456q-.1281.2038-.1536-.0066Q255.8393,50.4985,255.8648,50.7091Zm-.56-1.9751c.1758.5134,1.1255-.0372.0744.78-.2779.2159-.7068.8359-1.1368.8172-.6693-.0291-1.0549,1.089-1.9783.2955-.2252-.1934-.8046-.0963-.8944-.4695-.07-.2884.8484-.584.5429-.8606-.0134-.0122-.8162-.2852-.9009-.3264.3831.186-.8657.38-.7683.3817-.717-.015-.2556.3786-.6353.46-.5667-.3757-.5235-.3821-1.0244-.0243-.6173.1829-.2942-.4326-.53-.4429-.6-.026-.471-1.411.1483-1.0329.1106.3872.4126-.2838.4986-.3273.5171-.2622,2.6323-.3726,2.6363.2855.0038.5982.706.0785.9521.698.1418.3569-.2838.631-.11.92-.1028-.1705,1.4753-.186,1.4075-.1474.5659-.3234-1.8515-.4485-.9115-.8483a2.7066,2.7066,0,0,1,1.6956.0908C254.3946,48.9985,255.2044,48.4412,255.3048,48.734Zm4.3546-3.9124q-.2-.1113.0089-.2047Q259.8687,44.7282,259.6594,44.8216Zm3.1032-2.2261-.2832-.1134C262.3578,42.2647,263.255,42.6134,262.7626,42.5955Zm.3832,1.3239h0C263.11,43.9519,263.1813,43.8868,263.1458,43.9194Zm.0751.8271c-.0233.0755-.0415-.5.02-.4094Q263.0361,44.3283,263.2209,44.7465Zm.27-.8869q-.11-.1373.0722-.202Q263.6731,43.7947,263.4906,43.86Zm2.7872.6526a.4235.4235,0,0,1-.7205-.14C265.2377,43.5292,266.5788,44.069,266.2778,44.5122Zm3.304.9515c-.0118.274-.4654-.0806-.3113-.1668A.21.21,0,0,1,269.5818,45.4637Zm2.4584-1.1329q-.0044-.3093.2516-.1794C272.2909,44.0844,272.2139,44.6413,272.04,44.3308Zm1.6027.1516a.1967.1967,0,0,0-.0563.223c-.139.027-.9876-.4112-.9067-.5974C272.8805,43.6457,273.9033,44.4082,273.6429,44.4824Z" transform="translate(-20.1177 -39.0956)" fill="#fff"/><path d="M246.3131,50.3969c-.3017-.013.2456.4516.312.2577A.3539.3539,0,0,0,246.3131,50.3969Z" transform="translate(-20.1177 -39.0956)" fill="#fff"/><path d="M215.0372,70.8033c-.0208.4779.2938-.1127.2862-.1777Q215.1182,70.5,215.0372,70.8033Z" transform="translate(-20.1177 -39.0956)" fill="#fff"/><path d="M249.28,59.4228c-.0145.3351,1.4262.2313,1.4284.18C250.6349,59.4873,249.29,59.1881,249.28,59.4228Z" transform="translate(-20.1177 -39.0956)" fill="#fff"/><path d="M29.6665,54.2179c-.3277-.2584.0165-.622-.4589-.15-.5792-.019.22-.6025.1568-.5247-.0051.0062-2.21-.3242-2.2238-.0044-.0406.9347-2.7819,1.1475-1.5125,1.0453-.0212-.01.0328.4523-.0112.3247a17.4613,17.4613,0,0,0,3.0665-.2233C28.751,54.5005,29.7745,54.2915,29.6665,54.2179Z" transform="translate(-20.1177 -39.0956)" fill="#fff"/><path d="M115.3727,73.5473c.849.688-.0513-.6463-.0906-.203Z" transform="translate(-20.1177 -39.0956)" fill="#fff"/><path d="M32.2007,57.88q-.4936.1021-.2168.3666C32.6056,57.97,32.82,57.5444,32.2007,57.88Z" transform="translate(-20.1177 -39.0956)" fill="#fff"/><path d="M90.7812,73.8759l-.2637.0279C90.6159,73.9472,91.2935,74.034,90.7812,73.8759Z" transform="translate(-20.1177 -39.0956)" fill="#fff"/><path d="M91.7947,71.2825c.3747.0163-.8824.92-.7043.7249C90.4355,72.7239,92.5887,71.3169,91.7947,71.2825Z" transform="translate(-20.1177 -39.0956)" fill="#fff"/><path d="M90.7472,74.5835c-.5519.08-.8625,1.002-.7012.9783C90.1753,75.5428,91.5228,74.5321,90.7472,74.5835Z" transform="translate(-20.1177 -39.0956)" fill="#fff"/><path d="M88.2962,75.0366c-.4559.2765.0779.6531.2541-.0361Z" transform="translate(-20.1177 -39.0956)" fill="#fff"/><path d="M89.6572,74.0619a7.4665,7.4665,0,0,0-.8176-.2592c-.1982-.1913-.2092-.8442-.6682-.7681-.2335.0388.191,1.1439-.2434,1.13.6233.0195.2823-.1461.2547.493.01-.2369.645.0747.6242.08C88.9417,74.706,89.4924,74.0548,89.6572,74.0619Z" transform="translate(-20.1177 -39.0956)" fill="#fff"/><path d="M95.6035,75.115a.1755.1755,0,0,0-.2072.131C95.5054,75.4411,96.2294,75.2009,95.6035,75.115Z" transform="translate(-20.1177 -39.0956)" fill="#fff"/><path d="M94.8184,75.1066c-.288-.0124-.0391.095-.0581.4642C95.1963,75.2005,94.9476,75.1644,94.8184,75.1066Z" transform="translate(-20.1177 -39.0956)" fill="#fff"/><path d="M94.0242,73.6109c-.401.0588-.0634-.3524-.1151-.6075-.032-.1579-.7025-.773-.6989-.514.9255,1.0266.2269.0542-.0545,1.216a3.0145,3.0145,0,0,0-.0365,1.3616c.3587.5.2142-.9454.1457-.8567.079-.1023,1.2241-.2769,1.0721-.5485A.3759.3759,0,0,0,94.0242,73.6109Z" transform="translate(-20.1177 -39.0956)" fill="#fff"/><path d="M96.0859,73.8282a.82.82,0,0,0-.7015.345C95.3628,74.6706,96.3169,73.8383,96.0859,73.8282Z" transform="translate(-20.1177 -39.0956)" fill="#fff"/><path d="M84.5576,73.0944c-.3037.0705-.4931.0471.4223.24C84.7552,73.2871,85.2506,72.9329,84.5576,73.0944Z" transform="translate(-20.1177 -39.0956)" fill="#fff"/><path d="M84.5548,71.655a1.8453,1.8453,0,0,0-1.084-.22c-.1574.0393.1421.3569.0677.309C83.9307,72.217,84.355,71.4371,84.5548,71.655Z" transform="translate(-20.1177 -39.0956)" fill="#fff"/><path d="M87.4339,71.7087c-.3842-.0167-.2132.538.069.5524C87.8373,72.2783,87.6462,71.7178,87.4339,71.7087Z" transform="translate(-20.1177 -39.0956)" fill="#fff"/><path d="M87.8125,70.9713a.2671.2671,0,0,0-.2314.2617C87.7542,71.4143,87.9956,71.218,87.8125,70.9713Z" transform="translate(-20.1177 -39.0956)" fill="#fff"/><path d="M88.2624,70.4119c.2534-.31-.2916-.7205-.4588-.607-.0559.4677-.2743.437-.7275.3645C86.8022,70.5485,87.3052,71.5847,88.2624,70.4119Z" transform="translate(-20.1177 -39.0956)" fill="#fff"/><path d="M98.3809,76.2259c-.1313.4329.53.2713.2189-.1263Z" transform="translate(-20.1177 -39.0956)" fill="#fff"/><path d="M109.38,75.7529c-.4935-.1893-.8571-.2628-.9982.2462C108.5075,76.2237,110.9094,75.9362,109.38,75.7529Z" transform="translate(-20.1177 -39.0956)" fill="#fff"/><path d="M105.6809,72.2989c-1.2294-.5295.4192.8713.2068.1206Z" transform="translate(-20.1177 -39.0956)" fill="#fff"/><path d="M104.5721,71.5551c-.6793.21.61.2725.48.4019C105.22,71.7891,104.642,71.5582,104.5721,71.5551Z" transform="translate(-20.1177 -39.0956)" fill="#fff"/><path d="M32.9093,55.6423c.2145.2338-.67-1.405-.7083-.5178a2.7547,2.7547,0,0,0,.2.36C32.6763,55.91,32.75,55.4688,32.9093,55.6423Z" transform="translate(-20.1177 -39.0956)" fill="#fff"/><path d="M104.5668,72.9569c-.7259,1.3343,1.1032-.2382.1493-.1852Z" transform="translate(-20.1177 -39.0956)" fill="#fff"/><path d="M83.4,75.4377c-.6336.5422,1.0813-.176.3347-.1874Z" transform="translate(-20.1177 -39.0956)" fill="#fff"/><path d="M97.1959,71.517a.6665.6665,0,0,0-.2292.3591C97.0179,72.15,97.4294,71.527,97.1959,71.517Z" transform="translate(-20.1177 -39.0956)" fill="#fff"/><path d="M100.03,76.2416l-.2278.1807C100.7131,76.9718,100.7613,75.661,100.03,76.2416Z" transform="translate(-20.1177 -39.0956)" fill="#fff"/><path d="M103.4588,75.24c.0021,0-.6288-.08-.6372.1119C102.8073,75.6821,104.2248,75.3169,103.4588,75.24Z" transform="translate(-20.1177 -39.0956)" fill="#fff"/><path d="M95.7547,72.846c-.3977.0031-1.4369-.9285-1.0517.2693-.0143.0666-.5991-.167-.6119.1276.0036-.0808,1.1441.4034,1.2283.342C95.6949,73.3109,96.8405,72.8378,95.7547,72.846Z" transform="translate(-20.1177 -39.0956)" fill="#fff"/><path d="M113.8779,73.6829c-.0933.568,1.0262.0616.78-.38C114.2908,73.09,114.4291,73.5483,113.8779,73.6829Z" transform="translate(-20.1177 -39.0956)" fill="#fff"/><path d="M52.7438,60.18a.2905.2905,0,0,0,.3579-.144C52.8684,59.2451,51.9772,60.2918,52.7438,60.18Z" transform="translate(-20.1177 -39.0956)" fill="#fff"/><path d="M50.9457,62.847c-.0137.3148,1.4427,1.1808,1.38.6449C52.3016,63.2809,50.9421,62.93,50.9457,62.847Z" transform="translate(-20.1177 -39.0956)" fill="#fff"/><path d="M82.7741,74.6a1.5134,1.5134,0,0,0-1.1283.3614c.0836-.1232.7838.4986.7872.5C82.6179,75.5157,83.0939,74.7851,82.7741,74.6Z" transform="translate(-20.1177 -39.0956)" fill="#fff"/><path d="M61.5566,65.4009c-.7834-.3648.0733-.1314-.4922.0684C62.0654,66.1006,62.1638,65.2943,61.5566,65.4009Z" transform="translate(-20.1177 -39.0956)" fill="#fff"/><path d="M57.8631,67.2332c-.3125.0327-1.2456-.2072-1.4812-.0876-.25.1268,1.2046.4686,1.4607.4657.2334-.0024,1.185-.6189,1.2708-.5757C58.2225,67.013,58.379,67.1793,57.8631,67.2332Z" transform="translate(-20.1177 -39.0956)" fill="#fff"/><path d="M37.1973,63.554q-.5172-.0573-.4318.3278C37.0789,64.04,38.1222,63.7426,37.1973,63.554Z" transform="translate(-20.1177 -39.0956)" fill="#fff"/><path d="M34.102,56.233l-.203.12C33.753,56.7809,34.7631,56.09,34.102,56.233Z" transform="translate(-20.1177 -39.0956)" fill="#fff"/><path d="M51.61,66.5145c-.511-.0874-.663-.5561-1.0571-.7082-.083-.0321-1.7908-.2307-1.7818-.2358-.4724.2645,1.9484.8486,1.8075.41.0933.29-.213.8408.3886.6961C51.6821,66.5055,52.3743,66.704,51.61,66.5145Z" transform="translate(-20.1177 -39.0956)" fill="#fff"/><path d="M38.2046,62.0406l-.2825-.1021C37.7108,62.0565,38.5878,62.3471,38.2046,62.0406Z" transform="translate(-20.1177 -39.0956)" fill="#fff"/><path d="M33.3435,58.0884a1.4459,1.4459,0,0,0-.6333.22C32.4111,59.1139,35.635,57.6417,33.3435,58.0884Z" transform="translate(-20.1177 -39.0956)" fill="#fff"/><path d="M33.7386,55.9921c.1226-.2823-.62-.5506-.6376-.2657C33.0874,55.9491,33.5977,56.3161,33.7386,55.9921Z" transform="translate(-20.1177 -39.0956)" fill="#fff"/><path d="M38.5827,63.3692c-.606-.1175-1.15.6061.3366.0412Q38.8068,63.2639,38.5827,63.3692Z" transform="translate(-20.1177 -39.0956)" fill="#fff"/><path d="M48.2142,64.5011c-.4712-.399-.5928.3686.1179.1866Z" transform="translate(-20.1177 -39.0956)" fill="#fff"/><path d="M48.9012,66.1547c-.6772-.4649.439.8075.2413.2044Z" transform="translate(-20.1177 -39.0956)" fill="#fff"/><path d="M44.7845,65.9476c-.23.0082.7769.4168.7895.1276C45.5815,65.9034,44.9446,65.9418,44.7845,65.9476Z" transform="translate(-20.1177 -39.0956)" fill="#fff"/><path d="M50.8145,63.7661c.348-.575-1.5046-.6734-1.4266-.1692C49.4469,63.9793,50.469,63.9409,50.8145,63.7661Z" transform="translate(-20.1177 -39.0956)" fill="#fff"/><path d="M77.827,74.6386c-1.4076.6272.5155.5239.3417.0051Q78.0382,74.4522,77.827,74.6386Z" transform="translate(-20.1177 -39.0956)" fill="#fff"/><path d="M75.3123,70.2334c.0512.1445-.5364.2271-.5759.2733-.21.245.96.27,1.0082-.1026A.6731.6731,0,0,1,75.3123,70.2334Z" transform="translate(-20.1177 -39.0956)" fill="#fff"/><path d="M77.6656,71.8262c.2922-.4391,1.0719-.4651-.8493-.071.0693-.0142-1.621-.1918-1.0913.2046C75.962,72.1372,77.892,72.5023,77.6656,71.8262Z" transform="translate(-20.1177 -39.0956)" fill="#fff"/><path d="M82.4957,71.3264c.1208-.1-1.2513.7291-.5851.7579C82.4932,72.11,83.3123,71.0074,82.4957,71.3264Z" transform="translate(-20.1177 -39.0956)" fill="#fff"/><path d="M80.5724,75.1036q-.3325.0979-.205.296C81.3949,75.4611,81.214,74.2808,80.5724,75.1036Z" transform="translate(-20.1177 -39.0956)" fill="#fff"/><path d="M82.3087,72.9c.0183-.3639-1.0737-.4048-.9719-.0579C81.3832,73.0006,82.302,73.0233,82.3087,72.9Z" transform="translate(-20.1177 -39.0956)" fill="#fff"/><path d="M81.658,71.3258c-.01.1685-2.22-.5021-1.2464.6339C80.511,71.6064,81.6107,72.0893,81.658,71.3258Z" transform="translate(-20.1177 -39.0956)" fill="#fff"/><path d="M68.3826,69.9582a.4745.4745,0,0,1-.0034-.3893c.111.1255-.3106.01-.49.5514C67.9522,70.1517,68.5633,69.9661,68.3826,69.9582Z" transform="translate(-20.1177 -39.0956)" fill="#fff"/><path d="M65.1436,67.8316c.3927.1508.5565-.54.7229-.5392C65.5429,67.4027,64.8228,67.7085,65.1436,67.8316Z" transform="translate(-20.1177 -39.0956)" fill="#fff"/><path d="M64.0149,67.2655c.01-.0129-1.722.3622-1.3621.4849.201.0685,1.8277-.043,1.8533-.6329Q64.2393,66.8694,64.0149,67.2655Z" transform="translate(-20.1177 -39.0956)" fill="#fff"/><path d="M62.0263,66.5139c.1612-.0044.6916-.2591.2639-.2933A.3341.3341,0,0,0,62.0263,66.5139Z" transform="translate(-20.1177 -39.0956)" fill="#fff"/><path d="M61.8482,67.0547c-.27.1511.2969.174.0794.4188-.0557.0627-.728.1964-.7363.3874C62.9432,68.2373,62.09,66.92,61.8482,67.0547Z" transform="translate(-20.1177 -39.0956)" fill="#fff"/><path d="M74.6092,72.0119c-.6887-.2988.5476-.7412-.6765-1.3218-.1956-.1824-.0447-.7009-.0273-.6861-.3941-.332-1.2824,1.2756-1.679,1.24-.2716-.0244-.1255-.5747-.5726-.3926-.0212.0087-.7643.68-.766.6593.062.7594,1.6538.0576,1.9579.2571.1228.0805.8723.5.8685.6127C73.8931,72.417,75.0676,72.211,74.6092,72.0119ZM71.64,71.7408c-.4049-.0175.0942-.3789.1437-.3576A.2719.2719,0,0,1,71.64,71.7408Z" transform="translate(-20.1177 -39.0956)" fill="#fff"/></svg>