<?xml version="1.0" encoding="utf-8"?>
<!-- Generator: Adobe Illustrator 22.1.0, SVG Export Plug-In . SVG Version: 6.00 Build 0)  -->
<svg version="1.1" id="Layer_1" xmlns="http://www.w3.org/2000/svg" xmlns:xlink="http://www.w3.org/1999/xlink" x="0px" y="0px"
	 width="76.1px" height="76.1px" viewBox="0 0 76.1 76.1" style="enable-background:new 0 0 76.1 76.1;" xml:space="preserve">
<style type="text/css">
	.st0{display:none;}
	.st1{display:inline;}
	.st2{fill:#FFFFFF;}
</style>
<g class="st0">
	<g class="st1">
		<g>
			<polygon class="st2" points="4,26 0,26 0,0 26,0 26,4 4,4 			"/>
		</g>
		<g>
			<rect x="9.5" y="-1.9" transform="matrix(0.7071 -0.7071 0.7071 0.7071 -4.7367 11.5001)" class="st2" width="4" height="26.8"/>
		</g>
	</g>
	<g class="st1">
		<g>
			<polygon class="st2" points="76.1,76.1 50.1,76.1 50.1,72.1 72.1,72.1 72.1,50.1 76.1,50.1 			"/>
		</g>
		<g>
			
				<rect x="62.7" y="51.3" transform="matrix(0.7071 -0.7071 0.7071 0.7071 -26.7826 64.6987)" class="st2" width="4" height="26.8"/>
		</g>
	</g>
	<g class="st1">
		<g>
			<polygon class="st2" points="76.1,26 72.1,26 72.1,4 50.1,4 50.1,0 76.1,0 			"/>
		</g>
		<g>
			<rect x="51.3" y="9.5" transform="matrix(0.7071 -0.7071 0.7071 0.7071 10.8394 49.1236)" class="st2" width="26.8" height="4"/>
		</g>
	</g>
	<g class="st1">
		<g>
			<polygon class="st2" points="26,76.1 0,76.1 0,50.1 4,50.1 4,72.1 26,72.1 			"/>
		</g>
		<g>
			
				<rect x="-1.9" y="62.7" transform="matrix(0.7071 -0.7071 0.7071 0.7071 -42.3601 27.0758)" class="st2" width="26.8" height="4"/>
		</g>
	</g>
</g>
<rect x="36" y="16" class="st2" width="3.7" height="44"/>
<rect x="36.2" y="16" transform="matrix(-1.836970e-16 1 -1 -1.836970e-16 76.1 7.105427e-15)" class="st2" width="3.7" height="44"/>
</svg>
